name rise49.5252peak65.1548fall88.8305.mot
datacolumns 19
datarows 30
range 17.99658900000000 18.04492700000000
endheader
time	ground_force1_vx	ground_force1_vy	ground_force1_vz	ground_force1_px	ground_force1_py	ground_force1_pz	ground_force2_vx	ground_force2_vy	ground_force2_vz	ground_force2_px	ground_force2_py	ground_force2_pz	ground_torque1_x	ground_torque1_y	ground_torque1_z	ground_torque2_x	ground_torque2_y	ground_torque2_z	
17.99658900000000	65.10243699999999	742.04538100000002	54.94989000000000	0.40210500000000	0.00000000000000	0.10981700000000	-0.15246000000000	7.22516100000000	0.74385300000000	0.00000000000000	0.00000000000000	0.00000000000000	0.00000000000000	28.97733600000000	0.00000000000000	0.00000000000000	0.10243700000000	0.00000000000000	
17.99825900000000	64.59327900000000	746.15115600000001	55.29706900000000	0.40055100000000	0.00000000000000	0.10989400000000	0.11538800000000	3.61886900000000	0.44215600000000	0.00000000000000	0.00000000000000	0.00000000000000	0.00000000000000	29.19261300000000	0.00000000000000	0.00000000000000	0.08299900000000	0.00000000000000	
17.99992400000000	64.07859500000001	750.16880800000001	55.64336700000000	0.39903200000000	0.00000000000000	0.10997100000000	0.00000000000000	0.00000000000000	0.00000000000000	0.00000000000000	0.00000000000000	0.00000000000000	0.00000000000000	29.41015100000000	0.00000000000000	0.00000000000000	0.00000000000000	0.00000000000000	
18.00159000000000	63.55884700000000	754.09336900000005	55.98798000000000	0.39754800000000	0.00000000000000	0.11004600000000	0.00000000000000	0.00000000000000	0.00000000000000	0.00000000000000	0.00000000000000	0.00000000000000	0.00000000000000	29.62941700000000	0.00000000000000	0.00000000000000	0.00000000000000	0.00000000000000	
18.00325700000000	63.03445300000000	757.91989100000001	56.33004000000000	0.39610000000000	0.00000000000000	0.11012000000000	0.00000000000000	0.00000000000000	0.00000000000000	0.00000000000000	0.00000000000000	0.00000000000000	0.00000000000000	29.84983000000000	0.00000000000000	0.00000000000000	0.00000000000000	0.00000000000000	
18.00493100000000	62.50578600000000	761.64346899999998	56.66862100000000	0.39469000000000	0.00000000000000	0.11019300000000	0.00000000000000	0.00000000000000	0.00000000000000	0.00000000000000	0.00000000000000	0.00000000000000	0.00000000000000	30.07075900000000	0.00000000000000	0.00000000000000	0.00000000000000	0.00000000000000	
18.00659200000000	61.97317800000000	765.25926600000003	57.00274700000000	0.39331800000000	0.00000000000000	0.11026400000000	0.00000000000000	0.00000000000000	0.00000000000000	0.00000000000000	0.00000000000000	0.00000000000000	0.00000000000000	30.29153600000000	0.00000000000000	0.00000000000000	0.00000000000000	0.00000000000000	
18.00826700000000	61.43691900000000	768.76253599999995	57.33140000000000	0.39198300000000	0.00000000000000	0.11033300000000	0.00000000000000	0.00000000000000	0.00000000000000	0.00000000000000	0.00000000000000	0.00000000000000	0.00000000000000	30.51145300000000	0.00000000000000	0.00000000000000	0.00000000000000	0.00000000000000	
18.00992500000000	60.89726500000000	772.14864599999999	57.65352300000000	0.39068700000000	0.00000000000000	0.11040000000000	0.00000000000000	0.00000000000000	0.00000000000000	0.00000000000000	0.00000000000000	0.00000000000000	0.00000000000000	30.72977400000000	0.00000000000000	0.00000000000000	0.00000000000000	0.00000000000000	
18.01159300000000	60.35443500000000	775.41310099999998	57.96803300000000	0.38942800000000	0.00000000000000	0.11046600000000	0.00000000000000	0.00000000000000	0.00000000000000	0.00000000000000	0.00000000000000	0.00000000000000	0.00000000000000	30.94573500000000	0.00000000000000	0.00000000000000	0.00000000000000	0.00000000000000	
18.01325800000000	59.80861300000000	778.55156199999999	58.27382700000000	0.38820800000000	0.00000000000000	0.11052900000000	0.00000000000000	0.00000000000000	0.00000000000000	0.00000000000000	0.00000000000000	0.00000000000000	0.00000000000000	31.15855300000000	0.00000000000000	0.00000000000000	0.00000000000000	0.00000000000000	
18.01492800000000	59.25995700000000	781.55987100000004	58.56979100000000	0.38702500000000	0.00000000000000	0.11059000000000	0.00000000000000	0.00000000000000	0.00000000000000	0.00000000000000	0.00000000000000	0.00000000000000	0.00000000000000	31.36743000000000	0.00000000000000	0.00000000000000	0.00000000000000	0.00000000000000	
18.01659300000000	58.70859400000000	784.43406500000003	58.85480400000000	0.38588000000000	0.00000000000000	0.11064800000000	0.00000000000000	0.00000000000000	0.00000000000000	0.00000000000000	0.00000000000000	0.00000000000000	0.00000000000000	31.57155800000000	0.00000000000000	0.00000000000000	0.00000000000000	0.00000000000000	
18.01825900000000	58.15462600000000	787.17040299999996	59.12775200000000	0.38477100000000	0.00000000000000	0.11070400000000	0.00000000000000	0.00000000000000	0.00000000000000	0.00000000000000	0.00000000000000	0.00000000000000	0.00000000000000	31.77012500000000	0.00000000000000	0.00000000000000	0.00000000000000	0.00000000000000	
18.01992500000000	57.59813400000000	789.76537599999995	59.38753100000000	0.38369900000000	0.00000000000000	0.11075700000000	0.00000000000000	0.00000000000000	0.00000000000000	0.00000000000000	0.00000000000000	0.00000000000000	0.00000000000000	31.96232200000000	0.00000000000000	0.00000000000000	0.00000000000000	0.00000000000000	
18.02159000000000	57.03917500000000	792.21572800000001	59.63305800000000	0.38266100000000	0.00000000000000	0.11080700000000	0.00000000000000	0.00000000000000	0.00000000000000	0.00000000000000	0.00000000000000	0.00000000000000	0.00000000000000	32.14734400000000	0.00000000000000	0.00000000000000	0.00000000000000	0.00000000000000	
18.02326200000000	56.47779500000000	794.51846999999998	59.86327700000000	0.38165700000000	0.00000000000000	0.11085400000000	0.00000000000000	0.00000000000000	0.00000000000000	0.00000000000000	0.00000000000000	0.00000000000000	0.00000000000000	32.32439700000000	0.00000000000000	0.00000000000000	0.00000000000000	0.00000000000000	
18.02493000000000	55.91401900000000	796.67089499999997	60.07716500000000	0.38068700000000	0.00000000000000	0.11089900000000	0.00000000000000	0.00000000000000	0.00000000000000	0.00000000000000	0.00000000000000	0.00000000000000	0.00000000000000	32.49270700000000	0.00000000000000	0.00000000000000	0.00000000000000	0.00000000000000	
18.02659500000000	55.34786300000000	798.67058799999995	60.27374200000000	0.37974800000000	0.00000000000000	0.11094000000000	0.00000000000000	0.00000000000000	0.00000000000000	0.00000000000000	0.00000000000000	0.00000000000000	0.00000000000000	32.65151800000000	0.00000000000000	0.00000000000000	0.00000000000000	0.00000000000000	
18.02826200000000	54.77933500000000	800.51544000000001	60.45207600000000	0.37884000000000	0.00000000000000	0.11097900000000	0.00000000000000	0.00000000000000	0.00000000000000	0.00000000000000	0.00000000000000	0.00000000000000	0.00000000000000	32.80010200000000	0.00000000000000	0.00000000000000	0.00000000000000	0.00000000000000	
18.02992400000000	54.20843300000000	802.20365700000002	60.61129000000000	0.37796100000000	0.00000000000000	0.11101400000000	0.00000000000000	0.00000000000000	0.00000000000000	0.00000000000000	0.00000000000000	0.00000000000000	0.00000000000000	32.93775900000000	0.00000000000000	0.00000000000000	0.00000000000000	0.00000000000000	
18.03159100000000	53.63515200000000	803.73376599999995	60.75056700000000	0.37710900000000	0.00000000000000	0.11104700000000	0.00000000000000	0.00000000000000	0.00000000000000	0.00000000000000	0.00000000000000	0.00000000000000	0.00000000000000	33.06382700000000	0.00000000000000	0.00000000000000	0.00000000000000	0.00000000000000	
18.03325900000000	53.05948600000000	805.10462700000005	60.86915700000000	0.37628400000000	0.00000000000000	0.11107600000000	0.00000000000000	0.00000000000000	0.00000000000000	0.00000000000000	0.00000000000000	0.00000000000000	0.00000000000000	33.17767800000000	0.00000000000000	0.00000000000000	0.00000000000000	0.00000000000000	
18.03492900000000	52.48142600000000	806.31543199999999	60.96637800000000	0.37548300000000	0.00000000000000	0.11110200000000	0.00000000000000	0.00000000000000	0.00000000000000	0.00000000000000	0.00000000000000	0.00000000000000	0.00000000000000	33.27872900000000	0.00000000000000	0.00000000000000	0.00000000000000	0.00000000000000	
18.03659500000000	51.90096800000000	807.36571300000003	61.04162800000000	0.37470500000000	0.00000000000000	0.11112500000000	0.00000000000000	0.00000000000000	0.00000000000000	0.00000000000000	0.00000000000000	0.00000000000000	0.00000000000000	33.36644300000000	0.00000000000000	0.00000000000000	0.00000000000000	0.00000000000000	
18.03826000000000	51.31811300000000	808.25534300000004	61.09438100000000	0.37394800000000	0.00000000000000	0.11114500000000	0.00000000000000	0.00000000000000	0.00000000000000	0.00000000000000	0.00000000000000	0.00000000000000	0.00000000000000	33.44032900000000	0.00000000000000	0.00000000000000	0.00000000000000	0.00000000000000	
18.03993200000000	50.73286500000000	808.98453900000004	61.12419600000000	0.37320900000000	0.00000000000000	0.11116200000000	0.00000000000000	0.00000000000000	0.00000000000000	0.00000000000000	0.00000000000000	0.00000000000000	0.00000000000000	33.49994900000000	0.00000000000000	0.00000000000000	0.00000000000000	0.00000000000000	
18.04159500000000	50.14523900000000	809.55385500000000	61.13071600000000	0.37248800000000	0.00000000000000	0.11117500000000	0.00000000000000	0.00000000000000	0.00000000000000	0.00000000000000	0.00000000000000	0.00000000000000	0.00000000000000	33.54491700000000	0.00000000000000	0.00000000000000	0.00000000000000	0.00000000000000	
18.04326400000000	49.55525800000000	809.96418800000004	61.11367200000000	0.37178200000000	0.00000000000000	0.11118600000000	0.00000000000000	0.00000000000000	0.00000000000000	0.00000000000000	0.00000000000000	0.00000000000000	0.00000000000000	33.57490600000000	0.00000000000000	0.00000000000000	0.00000000000000	0.00000000000000	
18.04492700000000	48.96295500000000	810.21677099999999	61.07288700000000	0.37109000000000	0.00000000000000	0.11119400000000	0.00000000000000	0.00000000000000	0.00000000000000	0.00000000000000	0.00000000000000	0.00000000000000	0.00000000000000	33.58964300000000	0.00000000000000	0.00000000000000	0.00000000000000	0.00000000000000	
